<svg xmlns="http://www.w3.org/2000/svg" xmlns:rdkit="http://www.rdkit.org/xml" xmlns:xlink="http://www.w3.org/1999/xlink" version="1.1" baseProfile="full" xml:space="preserve" width="150px" height="150px" viewBox="0 0 150 150">
<!-- END OF HEADER -->
<rect style="opacity:1.0;fill:#FFFFFF;stroke:none" width="150.0" height="150.0" x="0.0" y="0.0"> </rect>
<ellipse cx="129.8" cy="97.0" rx="12.7" ry="12.7" class="atom-0" style="fill:#E5E533;fill-rule:evenodd;stroke:#E5E533;stroke-width:1.0px;stroke-linecap:butt;stroke-linejoin:miter;stroke-opacity:1"/>
<ellipse cx="71.8" cy="123.2" rx="12.7" ry="12.7" class="atom-1" style="fill:#9999E5;fill-rule:evenodd;stroke:#9999E5;stroke-width:1.0px;stroke-linecap:butt;stroke-linejoin:miter;stroke-opacity:1"/>
<ellipse cx="20.2" cy="86.1" rx="12.7" ry="12.7" class="atom-2" style="fill:#E5E533;fill-rule:evenodd;stroke:#E5E533;stroke-width:1.0px;stroke-linecap:butt;stroke-linejoin:miter;stroke-opacity:1"/>
<path class="bond-0 atom-0 atom-1" d="M 129.8,97.0 L 71.8,123.2" style="fill:none;fill-rule:evenodd;stroke:#000000;stroke-width:2.0px;stroke-linecap:butt;stroke-linejoin:miter;stroke-opacity:1"/>
<path class="bond-0 atom-0 atom-1" d="M 120.8,90.6 L 72.9,112.2" style="fill:none;fill-rule:evenodd;stroke:#000000;stroke-width:2.0px;stroke-linecap:butt;stroke-linejoin:miter;stroke-opacity:1;stroke-dasharray:6,4"/>
<path class="bond-1 atom-1 atom-2" d="M 71.8,123.2 L 20.2,86.1" style="fill:none;fill-rule:evenodd;stroke:#000000;stroke-width:2.0px;stroke-linecap:butt;stroke-linejoin:miter;stroke-opacity:1"/>
<path class="bond-1 atom-1 atom-2" d="M 72.9,112.2 L 30.3,81.5" style="fill:none;fill-rule:evenodd;stroke:#000000;stroke-width:2.0px;stroke-linecap:butt;stroke-linejoin:miter;stroke-opacity:1;stroke-dasharray:6,4"/>
<path class="bond-2 atom-2 atom-3" d="M 20.2,86.1 L 26.4,24.0" style="fill:none;fill-rule:evenodd;stroke:#E5E5E5;stroke-width:3.4px;stroke-linecap:butt;stroke-linejoin:miter;stroke-opacity:1"/>
<path class="bond-2 atom-2 atom-3" d="M 30.3,81.5 L 35.9,24.9" style="fill:none;fill-rule:evenodd;stroke:#E5E5E5;stroke-width:3.4px;stroke-linecap:butt;stroke-linejoin:miter;stroke-opacity:1;stroke-dasharray:6,4"/>
<path class="bond-3 atom-4 atom-0" d="M 136.0,34.9 L 129.8,97.0" style="fill:none;fill-rule:evenodd;stroke:#E5E5E5;stroke-width:3.4px;stroke-linecap:butt;stroke-linejoin:miter;stroke-opacity:1"/>
<path class="bond-3 atom-4 atom-0" d="M 126.5,34.0 L 120.8,90.6" style="fill:none;fill-rule:evenodd;stroke:#E5E5E5;stroke-width:3.4px;stroke-linecap:butt;stroke-linejoin:miter;stroke-opacity:1;stroke-dasharray:6,4"/>
<path d="M 128.3,97.7 L 129.8,97.0 L 129.9,95.5" style="fill:none;stroke:#000000;stroke-width:2.0px;stroke-linecap:butt;stroke-linejoin:miter;stroke-opacity:1;"/>
<path d="M 74.7,121.9 L 71.8,123.2 L 69.3,121.3" style="fill:none;stroke:#000000;stroke-width:2.0px;stroke-linecap:butt;stroke-linejoin:miter;stroke-opacity:1;"/>
<path d="M 21.5,87.0 L 20.2,86.1 L 20.4,84.5" style="fill:none;stroke:#000000;stroke-width:2.0px;stroke-linecap:butt;stroke-linejoin:miter;stroke-opacity:1;"/>
<path class="atom-3" d="M 27.9 21.3 L 30.5 18.6 L 27.0 17.9 L 27.6 16.1 L 30.8 17.7 L 30.3 14.1 L 32.2 14.1 L 31.7 17.7 L 35.0 16.1 L 35.5 17.9 L 32.0 18.5 L 34.5 21.2 L 33.0 22.4 L 31.2 19.0 L 29.4 22.4 L 27.9 21.3 " fill="#191919"/>
<path class="atom-4" d="M 128.0 31.3 L 130.6 28.6 L 127.1 27.9 L 127.6 26.1 L 130.9 27.7 L 130.4 24.1 L 132.3 24.1 L 131.8 27.7 L 135.1 26.1 L 135.6 27.9 L 132.1 28.5 L 134.6 31.2 L 133.1 32.4 L 131.3 29.0 L 129.5 32.4 L 128.0 31.3 " fill="#191919"/>
</svg>